<svg xmlns="http://www.w3.org/2000/svg" viewBox="0 0 40 40"><defs><style>.cls-1{fill-opacity:0;}.cls-2{fill:#fff;}</style></defs><title>ic_back</title><g id="레이어_2" data-name="레이어 2"><g id="레이어_1-2" data-name="레이어 1"><g id="Welcome"><g id="ic_back-arrow" data-name="ic back-arrow"><rect id="矩形" class="cls-1" width="40" height="40"/><path id="路径" class="cls-2" d="M32.67,19.21H9.31l10-10a.78.78,0,0,0,0-1.11.76.76,0,0,0-1.11,0L6.77,19.49a.77.77,0,0,0,0,1.1L18.06,31.88a.76.76,0,0,0,1.11,0,.76.76,0,0,0,0-1.11l-9.94-10H32.71A.79.79,0,0,0,33.5,20a.82.82,0,0,0-.83-.79Z"/></g></g></g></g></svg>