<?xml version="1.0" encoding="utf-8"?>
<!-- Generator: Adobe Illustrator 23.0.4, SVG Export Plug-In . SVG Version: 6.00 Build 0)  -->
<svg version="1.1" id="레이어_1" xmlns="http://www.w3.org/2000/svg" xmlns:xlink="http://www.w3.org/1999/xlink" x="0px"
	 y="0px" viewBox="0 0 101 101" style="enable-background:new 0 0 101 101;" xml:space="preserve">
<style type="text/css">
	.st0{fill:#FFFFFF;}
</style>
<path class="st0" d="M91.2,21.3H75.5l-3.7-10.5c-0.5-1.5-1.9-2.5-3.5-2.5H32.7c-1.6,0-3,1-3.5,2.5l-3.8,10.5H9.8
	c-5.1,0-9.3,4.1-9.3,9.3v52.8c0,5.1,4.1,9.3,9.3,9.3h81.5c5.1,0,9.3-4.1,9.3-9.3V30.6C100.5,25.5,96.4,21.3,91.2,21.3L91.2,21.3z
	 M92.2,83.4c0,0.5-0.4,0.9-0.9,0.9H9.8c-0.5,0-0.9-0.4-0.9-0.9V30.6c0-0.5,0.4-0.9,0.9-0.9h21.6l2-5.5l2.7-7.4h29l2.7,7.4l2,5.5
	h21.6c0.5,0,0.9,0.4,0.9,0.9L92.2,83.4L92.2,83.4z M50.5,37.1C40.3,37.1,32,45.4,32,55.6s8.3,18.5,18.5,18.5l0,0
	c10.2,0,18.5-8.3,18.5-18.5S60.7,37.1,50.5,37.1z M50.5,66.7c-6.1,0.1-11.2-4.7-11.4-10.9S43.8,44.6,50,44.5c0.2,0,0.4,0,0.5,0
	c6.1,0.1,11,5.2,10.9,11.4C61.2,61.8,56.4,66.6,50.5,66.7z"/>
</svg>
