<?xml version="1.0" encoding="utf-8"?>
<!-- Generator: Adobe Illustrator 23.0.4, SVG Export Plug-In . SVG Version: 6.00 Build 0)  -->
<svg version="1.1" id="레이어_1" xmlns="http://www.w3.org/2000/svg" xmlns:xlink="http://www.w3.org/1999/xlink" x="0px"
	 y="0px" viewBox="0 0 101 101" style="enable-background:new 0 0 101 101;" xml:space="preserve">
<style type="text/css">
	.st0{fill:#333333;}
</style>
<title>ic_good_default1</title>
<path class="st0" d="M88.3,34.7c-0.7-0.1-1.5-0.2-2.2-0.2H65.6V19.1c0-6-1.7-10.5-5-13.5c-3.1-2.8-7.7-4-12.9-3.5
	c-3,0.3-5.2,2.8-5.2,5.8l0,8.3c0,6,0,10.3-2.9,15.1c-3.3,5.2-8.3,9.1-14.1,11c-1.1-1.2-2.6-1.9-4.3-1.9H6.4c-3.2,0-5.9,2.6-5.9,5.9
	v46.8c0,3.2,2.6,5.9,5.9,5.9h14.8c2.1,0,3.9-1.1,5-2.8c2.2,1.7,5,2.8,8,2.8h47.3c6.4,0,11.8-4.6,12.8-10.9l6-36.9
	C101.6,43.3,96.2,36,88.3,34.7z M21.2,93.1H6.4l0-46.8h0h14.8V48V86V93.1z M94.5,50.3l-6,36.9c-0.6,3.4-3.5,5.9-7,5.9H34.2
	c-3.9,0-7.1-3.2-7.1-7.1V48c7.3-2.3,13.5-7.1,17.6-13.6c3.8-6.2,3.8-11.8,3.8-18.2L48.4,8c2-0.2,5.8-0.3,8.3,2c2,1.8,3,4.8,3,9.1
	v18.4c0,1.6,1.3,2.9,2.9,2.9h23.4c0.4,0,0.9,0,1.3,0.1C92.1,41.3,95.2,45.6,94.5,50.3z"/>
</svg>
