<?xml version="1.0" encoding="utf-8"?>
<!-- Generator: Adobe Illustrator 23.0.4, SVG Export Plug-In . SVG Version: 6.00 Build 0)  -->
<svg version="1.1" id="레이어_1" xmlns="http://www.w3.org/2000/svg" xmlns:xlink="http://www.w3.org/1999/xlink" x="0px"
	 y="0px" viewBox="0 0 101 101" style="enable-background:new 0 0 101 101;" xml:space="preserve">
<style type="text/css">
	.st0{fill:#999999;}
</style>
<title>ic_exclamation</title>
<g>
	<path class="st0" d="M50.5,0.5c-27.5,0-50,22.5-50,50s22.5,50,50,50s50-22.5,50-50S78,0.5,50.5,0.5z M50.5,94.6
		c-24.3,0-44.1-19.9-44.1-44.1S26.2,6.4,50.5,6.4s44.1,19.9,44.1,44.1S74.8,94.6,50.5,94.6z"/>
	<path class="st0" d="M50.5,63.4c1.6,0,2.9-1.3,2.9-2.9V26.2c0-1.6-1.3-2.9-2.9-2.9s-2.9,1.3-2.9,2.9v34.1
		C47.6,62.1,48.9,63.4,50.5,63.4z"/>
	<circle class="st0" cx="50.5" cy="71.8" r="3.2"/>
</g>
</svg>
