<?xml version="1.0" encoding="utf-8"?>
<!-- Generator: Adobe Illustrator 22.0.1, SVG Export Plug-In . SVG Version: 6.00 Build 0)  -->
<svg version="1.1" id="레이어_1" xmlns="http://www.w3.org/2000/svg" xmlns:xlink="http://www.w3.org/1999/xlink" x="0px"
	 y="0px" viewBox="0 0 300 300" style="enable-background:new 0 0 300 300;" xml:space="preserve">
<style type="text/css">
	.st0{fill:#999999;}
</style>
<g>
	<path class="st0" d="M178.9,194.5c-3.6-3.6-8.4-5.6-13.5-5.6s-9.9,2-13.5,5.6c-2.5,2.5-5.8,5.8-8.2,6.6c-0.6,0.2-1.8,0.6-4.8-2.4
		l-37.9-37.9c-3.6-3.6-4.4-4.4,4.2-13c7.5-7.5,7.5-19.6,0-27.1L73.3,88.9c-3.7-3.7-8.6-5.7-13.9-5.5c-5.6,0.2-11,2.9-14.9,7.3
		c-31.3,36.3-21.1,76.7,33.3,131c34.1,34.1,62.7,50.9,88.3,50.8c15.2,0,29.2-5.9,42.7-17.6c4.4-3.8,7.1-9.3,7.3-14.9
		c0.2-5.2-1.7-10.1-5.5-13.9L178.9,194.5z M200.4,245.2C179,263.8,148.8,274.4,87,212.6c-61.8-61.8-51.2-92-32.6-113.4
		c1.5-1.7,3.5-2.8,5.6-2.9c0.1,0,0.2,0,0.2,0c1.5,0,2.9,0.6,4,1.7L96,129.9c2.4,2.4,2.4,6.4,0,8.8c-6.6,6.6-17.8,17.8-4.2,31.3
		l18.9,18.9c0,0,0,0,0,0l18.9,18.9c5.8,5.8,11.9,7.6,18.1,5.5c4.8-1.6,8.8-5.4,13.2-9.7c2.4-2.4,6.4-2.4,8.8,0l31.8,31.8
		c1.2,1.2,1.7,2.6,1.7,4.2C203.2,241.7,202.1,243.7,200.4,245.2z"/>
	<path class="st0" d="M175.6,29.4c-36.2,0-69.6,19.7-87.1,51.5C86.7,84,87.9,88,91,89.7c3.1,1.7,7.1,0.6,8.8-2.5
		C115,59.5,144,42.3,175.6,42.3c47.7,0,86.4,38.8,86.4,86.4c0,31.7-17.3,60.8-45.2,76c-3.1,1.7-4.3,5.6-2.6,8.8
		c1.2,2.2,3.4,3.4,5.7,3.4c1,0,2.1-0.3,3.1-0.8c32.1-17.4,52-50.9,52-87.4C274.9,74,230.3,29.4,175.6,29.4z"/>
	<path class="st0" d="M176.7,144.1L176.7,144.1c-4.6,0-8.2,3.6-8.2,8.1c0,4.5,3.6,8.1,8.1,8.1h0.1c4.5,0,8.1-3.6,8.1-8.1
		C184.8,147.7,181.2,144.1,176.7,144.1z"/>
	<path class="st0" d="M190.6,123.3c4.6-3.4,7.5-7.1,9.5-10c2.4-3.5,3.4-7.5,3.4-12.2c0-8.5-3.2-16.7-11.1-20.7
		c-4.8-2.4-10.1-4.1-16.7-3.7c-7.2,0.4-13.3,2.5-18.2,6.4c-3.4,2.8-5.8,6.3-7.2,10.6c-1.6,5,2.3,10.1,7.5,10.1
		c2.3,0,6.1-1.3,7.8-6.3l0,0c2-5.2,6.5-7.6,10.9-7.6c10.6,0,11.8,6.9,11.6,11.9c-0.1,2.6-1.2,5.2-2.5,7.2c-1,1.8-2.7,3.6-5,5.3
		c-4.9,3.4-8.1,6.7-9.5,10c-0.5,1.2-1,2.6-1.3,4.4c-0.8,4.5,2.6,8.6,7.2,8.6h0.4c3.5,0,6.4-2.6,7.1-6c0.2-1.1,0.6-2,1-2.8
		C186.2,126.8,187.9,125.1,190.6,123.3z"/>
</g>
</svg>
