<?xml version="1.0" encoding="utf-8"?>
<!-- Generator: Adobe Illustrator 23.0.4, SVG Export Plug-In . SVG Version: 6.00 Build 0)  -->
<svg version="1.1" id="레이어_1" xmlns="http://www.w3.org/2000/svg" xmlns:xlink="http://www.w3.org/1999/xlink" x="0px"
	 y="0px" viewBox="0 0 101 101" style="enable-background:new 0 0 101 101;" xml:space="preserve">
<style type="text/css">
	.st0{fill:none;}
	.st1{fill:#FFFFFF;}
</style>
<title>ic_language_1</title>
<rect class="st0" width="101" height="101"/>
<path class="st1" d="M50.5,0.9C23.1,0.9,0.9,23.1,0.9,50.5s22.3,49.6,49.6,49.6c27.4,0,49.6-22.3,49.6-49.6
	C100.1,23.1,77.9,0.9,50.5,0.9z M89.9,31.5H74.6c-1.9-9.1-5.2-16.9-9.5-22.3C76,13.1,85,21.2,89.9,31.5z M94.3,50.5
	c0,4.6-0.7,9-2,13.1H75.6c0.6-4.2,0.9-8.6,0.9-13.1s-0.3-9-0.9-13.1h16.6C93.6,41.5,94.3,45.9,94.3,50.5z M6.7,50.5
	c0-4.6,0.7-9,2-13.1h16.6c-0.6,4.2-0.9,8.6-0.9,13.1s0.3,9,0.9,13.1H8.7C7.4,59.5,6.7,55.1,6.7,50.5z M30.3,50.5c0-4.6,0.3-9,1-13.1
	h16.3v26.3H31.3C30.6,59.5,30.3,55.1,30.3,50.5z M68.6,31.5H53.4V7.2C60,9.4,65.7,18.8,68.6,31.5z M47.6,7.2v24.3H32.4
	C35.3,18.8,41,9.4,47.6,7.2z M47.6,69.5v24.3C41,91.6,35.3,82.2,32.4,69.5H47.6z M53.4,93.8V69.5h15.2C65.7,82.2,60,91.6,53.4,93.8z
	 M53.4,63.6V37.4h16.3c0.6,4.2,1,8.6,1,13.1s-0.3,9-1,13.1H53.4z M35.8,9.3c-4.2,5.4-7.5,13.1-9.5,22.3H11.1
	C16,21.2,25,13.1,35.8,9.3z M11.1,69.5h15.3c1.9,9.1,5.2,16.9,9.5,22.3C25,87.9,16,79.8,11.1,69.5z M65.2,91.7
	c4.2-5.4,7.5-13.1,9.5-22.3H90C85,79.8,76,87.9,65.2,91.7z"/>
</svg>
