<?xml version="1.0" encoding="utf-8"?>
<!-- Generator: Adobe Illustrator 23.0.4, SVG Export Plug-In . SVG Version: 6.00 Build 0)  -->
<svg version="1.1" id="레이어_1" xmlns="http://www.w3.org/2000/svg" xmlns:xlink="http://www.w3.org/1999/xlink" x="0px"
	 y="0px" viewBox="0 0 101 101" style="enable-background:new 0 0 101 101;" xml:space="preserve">
<style type="text/css">
	.st0{fill:none;}
	.st1{fill:#FFFFFF;}
</style>
<title>ic_howtouse</title>
<rect class="st0" width="101" height="101"/>
<g>
	<path class="st1" d="M63.3,94.3H19.1c-1.6,0-2.9-1.3-2.9-2.9V70.8h41.4c1.2,0,2.2-1,2.2-2.2s-1-2.2-2.2-2.2H16.2V16.7h59.3V49
		c0,1.6,1.3,2.9,2.9,2.9s2.9-1.3,2.9-2.9V9.6c0-4.8-3.9-8.8-8.8-8.8H19.1c-4.8,0-8.8,3.9-8.8,8.8v81.7c0,4.8,3.9,8.8,8.8,8.8h44.2
		c1.6,0,2.9-1.3,2.9-2.9C66.2,95.6,64.9,94.3,63.3,94.3z M19.1,6.7h53.4c1.6,0,2.9,1.3,2.9,2.9v2.6H16.2V9.6
		C16.2,8,17.5,6.7,19.1,6.7z"/>
	<path class="st1" d="M37.8,81.8c0,4.4,3.6,8,8,8s8-3.6,8-8s-3.6-8-8-8S37.8,77.4,37.8,81.8z M49.4,81.8c0,2-1.6,3.6-3.6,3.6
		s-3.6-1.6-3.6-3.6s1.6-3.6,3.6-3.6S49.4,79.8,49.4,81.8z"/>
	<circle class="st1" cx="78.8" cy="96.8" r="3.1"/>
	<path class="st1" d="M88.9,62.9c-1.6-2.5-4.1-4.3-7-4.9c-6-1.3-12,2.5-13.4,8.6c-0.3,1.2-0.3,2.5-0.2,3.8c0.2,1.6,1.7,2.7,3.3,2.5
		c1.6-0.2,2.7-1.7,2.5-3.3C74,69,74,68.4,74.2,67.8c0.6-2.9,3.5-4.7,6.4-4.1C82,64,83.2,64.8,84,66s1,2.7,0.7,4.1
		c-0.1,0.7-0.4,1.3-0.8,1.9l-5.7,6.6c-1.5,1.7-2.3,4-2.3,6.3v2.7c0,1.6,1.3,2.9,2.9,2.9s2.9-1.3,2.9-2.9v-2.7c0-0.9,0.3-1.8,0.9-2.5
		l5.7-6.7c0.1-0.1,0.1-0.1,0.2-0.2c0.9-1.2,1.5-2.6,1.8-4.1C91,68.4,90.5,65.4,88.9,62.9z"/>
</g>
</svg>
