<?xml version="1.0" encoding="utf-8"?>
<!-- Generator: Adobe Illustrator 23.0.4, SVG Export Plug-In . SVG Version: 6.00 Build 0)  -->
<svg version="1.1" id="레이어_1" xmlns="http://www.w3.org/2000/svg" xmlns:xlink="http://www.w3.org/1999/xlink" x="0px"
	 y="0px" viewBox="0 0 101 101" style="enable-background:new 0 0 101 101;" xml:space="preserve">
<style type="text/css">
	.st0{fill:none;}
	.st1{fill:#FFFFFF;}
</style>
<title>ic_duration</title>
<rect class="st0" width="101" height="101"/>
<g>
	<path class="st1" d="M81,94V79.6c0-6.6-2.6-12.9-7.3-17.5L62.2,50.5l11.6-11.6C78.4,34.2,81,28,81,21.4V7c1.5-0.2,2.6-1.5,2.6-3
		c0-1.7-1.4-3.1-3.1-3.1h-60c-1.7,0-3.1,1.4-3.1,3.1c0,1.5,1.1,2.8,2.6,3v14.3c0,6.6,2.6,12.9,7.3,17.5l11.6,11.6L27.3,62.1
		C22.6,66.7,20,73,20,79.6V94c-1.5,0.3-2.6,1.5-2.6,3c0,1.7,1.4,3.1,3.1,3.1h59.9c1.7,0,3.1-1.4,3.1-3.1C83.6,95.5,82.5,94.2,81,94z
		 M31.6,66.4l13.8-13.8c1.2-1.2,1.2-3.2,0-4.4L31.6,34.5c-3.5-3.5-5.4-8.2-5.4-13.2V7.1h48.6v14.3c0,5-1.9,9.6-5.4,13.2L55.6,48.3
		c-1.2,1.2-1.2,3.2,0,4.4l13.8,13.8c3.5,3.5,5.4,8.2,5.4,13.2V94h-4L52.1,75.2c-0.9-0.9-2.4-0.9-3.3,0L30.1,93.9h-4V79.6
		C26.2,74.6,28.1,70,31.6,66.4z M36.7,93.9l13.8-13.8l13.8,13.8H36.7z"/>
	<path class="st1" d="M50.5,41.7c0.6,0,1.2-0.2,1.6-0.7l11.2-11.2c0.7-0.7,0.9-1.7,0.5-2.5s-1.2-1.4-2.1-1.4H39.3
		c-0.9,0-1.8,0.6-2.1,1.4c-0.4,0.9-0.2,1.9,0.5,2.5L48.9,41C49.3,41.4,49.9,41.7,50.5,41.7z M56.1,30.5l-5.6,5.6l-5.6-5.6
		C44.9,30.5,56.1,30.5,56.1,30.5z"/>
</g>
</svg>
