<?xml version="1.0" encoding="utf-8"?>
<!-- Generator: Adobe Illustrator 23.0.4, SVG Export Plug-In . SVG Version: 6.00 Build 0)  -->
<svg version="1.1" id="레이어_1" xmlns="http://www.w3.org/2000/svg" xmlns:xlink="http://www.w3.org/1999/xlink" x="0px"
	 y="0px" viewBox="0 0 101 101" style="enable-background:new 0 0 101 101;" xml:space="preserve">
<style type="text/css">
	.st0{fill:none;}
	.st1{fill:#FFFFFF;}
</style>
<title>ic_minimum numaber of participants</title>
<rect class="st0" width="101" height="101"/>
<g>
	<path class="st1" d="M68.9,51.4c10.7,0,19.4-8.7,19.4-19.4v-0.9c0-10.7-8.7-19.4-19.4-19.4s-19.4,8.7-19.4,19.4V32
		C49.5,42.7,58.2,51.4,68.9,51.4z M55.3,31.1c0-7.5,6.1-13.6,13.6-13.6s13.6,6.1,13.6,13.6V32c0,7.5-6.1,13.6-13.6,13.6
		S55.3,39.5,55.3,32C55.3,32,55.3,31.1,55.3,31.1z"/>
	<path class="st1" d="M27,58.1c9.1,0,16.5-7.4,16.5-16.5v-0.7c0-9.1-7.4-16.5-16.5-16.5l0,0c-9.1,0-16.5,7.4-16.5,16.5v0.7
		C10.5,50.7,17.9,58.1,27,58.1z M16.3,40.9c0-5.9,4.8-10.7,10.7-10.7l0,0c5.9,0,10.7,4.8,10.7,10.7v0.7c0,5.9-4.8,10.7-10.7,10.7
		s-10.7-4.8-10.7-10.7V40.9z"/>
	<path class="st1" d="M40.3,66.9c0.8-1.4,0.2-3.2-1.2-3.9c-3.7-2-7.9-3.1-12.2-3.1l0,0c-14.5,0.1-26.2,12-26,26.6
		c0,1.6,1.3,2.9,2.9,2.9H32c1.6,0,2.9-1.3,2.9-2.9s-1.3-2.9-2.9-2.9H6.9c1.3-10,9.8-17.7,20.1-17.9l0,0c3.3,0,6.5,0.8,9.4,2.4
		C37.8,68.8,39.6,68.3,40.3,66.9z"/>
	<path class="st1" d="M68.9,83.5H43.8c1.3-12.8,12-22.8,25.1-23c1.9,0,3.9,0.2,5.7,0.7c1.6,0.4,3.1-0.6,3.5-2.2
		c0.4-1.6-0.6-3.1-2.2-3.5c-2.3-0.5-4.7-0.8-7.1-0.8c-17.3,0.2-31.3,14.5-31.1,31.8c0,1.6,1.3,2.9,2.9,2.9h28.2
		c1.6,0,2.9-1.3,2.9-2.9S70.5,83.5,68.9,83.5z"/>
	<path class="st1" d="M97.2,71.7h-8.9v-8.9c0-1.6-1.3-2.9-2.9-2.9s-2.9,1.3-2.9,2.9v8.9h-8.9c-1.6,0-2.9,1.3-2.9,2.9
		s1.3,2.9,2.9,2.9h8.9v8.9c0,1.6,1.3,2.9,2.9,2.9s2.9-1.3,2.9-2.9v-8.9h8.9c1.6,0,2.9-1.3,2.9-2.9S98.8,71.7,97.2,71.7z"/>
</g>
</svg>
