<?xml version="1.0" encoding="utf-8"?>
<!-- Generator: Adobe Illustrator 23.0.4, SVG Export Plug-In . SVG Version: 6.00 Build 0)  -->
<svg version="1.1" id="레이어_1" xmlns="http://www.w3.org/2000/svg" xmlns:xlink="http://www.w3.org/1999/xlink" x="0px"
	 y="0px" viewBox="0 0 101 101" style="enable-background:new 0 0 101 101;" xml:space="preserve">
<style type="text/css">
	.st0{fill:#FFFFFF;}
	.st1{fill:none;}
</style>
<title>ic_voucher</title>
<g id="레이어_1-3">
	<path class="st0" d="M87.9,7.1v86.8l-9.3-8.3l-9.3,8.3l-9.2-8.2L50.8,94l-9.3-8.3L32.2,94l-9.3-8.3L13.6,94V7.1H87.9 M87.9,0.9
		H13.3c-3.4,0-6.2,2.8-6.2,6.2v86.8c0,3.4,2.8,6.2,6.2,6.2c1.5,0,3-0.6,4.1-1.6l5.2-4.6l5.2,4.6c2.3,2.1,5.9,2.1,8.2,0l5.2-4.6
		l5.2,4.6c2.3,2.1,5.9,2.1,8.2,0l5.2-4.6l5.2,4.6c2.3,2.1,5.9,2.1,8.2,0l5.2-4.6l5.2,4.6c1.1,1,2.6,1.6,4.1,1.5
		c3.4,0,6.2-2.8,6.2-6.2V7.1C94.1,3.7,91.3,0.9,87.9,0.9L87.9,0.9z"/>
	<path class="st0" d="M49.4,26.2H24.9c-1.7,0-3.1-1.4-3.1-3.1s1.4-3.1,3.1-3.1h24.5c1.7,0,3.1,1.4,3.1,3.1S51.1,26.2,49.4,26.2z"/>
	<path class="st0" d="M76.2,39.9H24.9c-1.7,0-3.1-1.4-3.1-3.1s1.4-3.1,3.1-3.1h51.3c1.7,0,3.1,1.4,3.1,3.1S77.9,39.9,76.2,39.9z"/>
	<path class="st0" d="M76.2,53.7H24.9c-1.7,0-3.1-1.4-3.1-3.1c0-1.7,1.4-3.1,3.1-3.1h51.3c1.7,0,3.1,1.4,3.1,3.1
		C79.3,52.3,77.9,53.7,76.2,53.7z"/>
	<path class="st0" d="M76.2,67.4H24.9c-1.7,0-3.1-1.4-3.1-3.1c0-1.7,1.4-3.1,3.1-3.1h51.3c1.7,0,3.1,1.4,3.1,3.1
		C79.3,66,77.9,67.4,76.2,67.4z"/>
</g>
<rect class="st1" width="101" height="101"/>
</svg>
