<?xml version="1.0" encoding="utf-8"?>
<!-- Generator: Adobe Illustrator 23.0.4, SVG Export Plug-In . SVG Version: 6.00 Build 0)  -->
<svg version="1.1" id="레이어_1" xmlns="http://www.w3.org/2000/svg" xmlns:xlink="http://www.w3.org/1999/xlink" x="0px"
	 y="0px" viewBox="0 0 101 101" style="enable-background:new 0 0 101 101;" xml:space="preserve">
<style type="text/css">
	.st0{fill:none;}
	.st1{fill:#FFFFFF;}
</style>
<title>ic_cancellation_1</title>
<rect class="st0" width="101" height="101"/>
<g>
	<path class="st1" d="M66.2,76H7.8c-0.6,0-1.1-0.5-1.1-1.1v-33h83.1c0.2,0,0.3,0,0.5,0v6.5c0,1.6,1.3,2.9,2.9,2.9s2.9-1.3,2.9-2.9
		V25.6c0-3.8-3.1-6.9-6.9-6.9H7.8c-3.8,0-6.9,3.1-6.9,6.9V75c0,3.8,3.1,6.9,6.9,6.9h58.4c1.6,0,2.9-1.3,2.9-2.9S67.8,76,66.2,76z
		 M7.8,24.5h81.4c0.6,0,1.1,0.5,1.1,1.1v9.1c-0.2,0-0.3,0-0.5,0H6.7v-9C6.7,25,7.2,24.5,7.8,24.5z"/>
	<path class="st1" d="M91.5,69.6l7.8-7.8c1.1-1.1,1.1-3,0-4.1s-3-1.1-4.1,0l-7.8,7.8l-7.8-7.8c-1.1-1.1-3-1.1-4.1,0s-1.1,3,0,4.1
		l7.8,7.8l-7.8,7.8c-1.1,1.1-1.1,3,0,4.1c0.6,0.6,1.3,0.9,2.1,0.9c0.7,0,1.5-0.3,2.1-0.9l7.8-7.8l7.8,7.8c0.6,0.6,1.3,0.9,2.1,0.9
		c0.7,0,1.5-0.3,2.1-0.9c1.1-1.1,1.1-3,0-4.1L91.5,69.6z"/>
	<path class="st1" d="M13.7,52c-1.6,0-2.9,1.3-2.9,2.9v13.9c0,1.6,1.3,2.9,2.9,2.9h19.8c1.6,0,2.9-1.3,2.9-2.9V54.9
		c0-1.6-1.3-2.9-2.9-2.9H13.7z M30.6,66H16.7v-8.1h13.9V66z"/>
</g>
</svg>
