<?xml version="1.0" encoding="utf-8"?>
<!-- Generator: Adobe Illustrator 23.0.4, SVG Export Plug-In . SVG Version: 6.00 Build 0)  -->
<svg version="1.1" id="레이어_1" xmlns="http://www.w3.org/2000/svg" xmlns:xlink="http://www.w3.org/1999/xlink" x="0px"
	 y="0px" viewBox="0 0 101 101" style="enable-background:new 0 0 101 101;" xml:space="preserve">
<style type="text/css">
	.st0{fill:none;}
	.st1{fill:#FFFFFF;}
</style>
<rect class="st0" width="101" height="101"/>
<title>ic_type of ticket_1</title>
<g>
	<path class="st1" d="M26.4,60.5h12.1h12.1l0,0h12l0,0h12.1c1.5,0,2.7-1.2,2.7-2.7V45.7c0-1.5-1.2-2.7-2.7-2.7H62.6l0,0h-12l0,0
		H38.4h-12c-1.5,0-2.7,1.2-2.7,2.7v12.1C23.7,59.3,24.9,60.5,26.4,60.5z M71.9,55.1h-6.6v-6.6h6.6V55.1z M59.8,55.1h-6.6v-6.6h6.6
		V55.1z M41.2,48.4h6.6V55h-6.6V48.4z M29.1,48.4h6.6V55h-6.6V48.4z"/>
	<path class="st1" d="M26.4,84.6h12.1h12.1c1.5,0,2.7-1.2,2.7-2.7V69.8c0-1.5-1.2-2.7-2.7-2.7H38.4h-12c-1.5,0-2.7,1.2-2.7,2.7v12.1
		C23.7,83.4,24.9,84.6,26.4,84.6z M47.8,79.2h-6.6v-6.6h6.6V79.2z M29.1,72.6h6.6v6.6h-6.6V72.6z"/>
	<path class="st1" d="M93.6,6.9H80.9V4c0-1.7-1.4-3.1-3.1-3.1H64.5c-1.7,0-3.1,1.4-3.1,3.1v2.9H39.7V4c0-1.7-1.4-3.1-3.1-3.1H23.3
		c-1.7,0-3.1,1.4-3.1,3.1v2.9H7.4c-1.7,0-3.1,1.4-3.1,3.1v20.7V97c0,1.7,1.4,3.1,3.1,3.1h86.2c1.7,0,3.1-1.4,3.1-3.1V30.6V10
		C96.7,8.3,95.3,6.9,93.6,6.9z M67.6,7.1h7.1v4.8h-7.1V7.1z M26.4,7.1h7.1v4.8h-7.1V7.1z M10.5,13.1h9.6V15c0,1.7,1.4,3.1,3.1,3.1
		h13.3c1.7,0,3.1-1.4,3.1-3.1v-1.9h21.7V15c0,1.7,1.4,3.1,3.1,3.1h13.3c1.7,0,3.1-1.4,3.1-3.1v-1.9h9.6v14.4h-80L10.5,13.1
		L10.5,13.1z M90.5,93.9h-80V33.7h80V93.9z"/>
</g>
</svg>
