<?xml version="1.0" encoding="utf-8"?>
<!-- Generator: Adobe Illustrator 23.0.4, SVG Export Plug-In . SVG Version: 6.00 Build 0)  -->
<svg version="1.1" id="레이어_1" xmlns="http://www.w3.org/2000/svg" xmlns:xlink="http://www.w3.org/1999/xlink" x="0px"
	 y="0px" viewBox="0 0 101 101" style="enable-background:new 0 0 101 101;" xml:space="preserve">
<style type="text/css">
	.st0{fill:#D91C84;}
</style>
<path class="st0" d="M50.5,0.5c-27.6,0-50,22.4-50,50s22.4,50,50,50s50-22.4,50-50S78.1,0.5,50.5,0.5z M25.5,40.3
	c0.1-3,2.5-5.3,5.5-5.2c2.9,0.1,5.2,2.4,5.2,5.2c-0.1,3-2.5,5.3-5.5,5.2C27.9,45.5,25.6,43.2,25.5,40.3z M50.5,70.7
	c-9.5,0-17.4-7.5-17.9-16.9c0-0.5,0.4-0.9,0.8-0.9c0,0,0,0,0,0h5.4c0.5,0,0.9,0.4,0.9,0.8c0.4,5.5,5.1,9.9,10.7,9.9
	s10.3-4.4,10.7-9.9c0-0.5,0.4-0.8,0.9-0.8h5.4c0.5,0,0.9,0.4,0.9,0.9c0,0,0,0,0,0C67.9,63.2,60,70.7,50.5,70.7z M70.1,45.7
	c-3-0.1-5.3-2.5-5.2-5.5c0.1-2.9,2.4-5.2,5.2-5.2c3,0.1,5.3,2.5,5.2,5.5C75.3,43.3,73,45.6,70.1,45.7z"/>
</svg>
